<?xml version="1.0" standalone="no"?>
<!DOCTYPE svg PUBLIC "-//W3C//DTD SVG 20010904//EN"
 "http://www.w3.org/TR/2001/REC-SVG-20010904/DTD/svg10.dtd">
<svg version="1.0" xmlns="http://www.w3.org/2000/svg"
 width="500.000000pt" height="500.000000pt" viewBox="0 0 500.000000 500.000000"
 preserveAspectRatio="xMidYMid meet">

<g transform="translate(0.000000,500.000000) scale(0.100000,-0.100000)"
fill="#000000" stroke="none">
<path d="M3399 4860 c-121 -42 -257 -131 -425 -279 l-101 -88 -89 48 c-223
121 -433 189 -588 189 -310 0 -412 -222 -291 -635 29 -99 104 -283 164 -405
l58 -115 -124 -130 c-206 -216 -350 -415 -393 -545 -30 -90 -26 -190 11 -246
82 -124 311 -180 634 -155 141 11 431 58 537 88 l57 15 39 -33 c22 -19 88 -76
146 -127 253 -220 489 -368 679 -427 74 -23 100 -27 170 -23 107 5 157 32 209
108 52 76 69 149 75 315 6 156 -18 392 -62 610 -22 112 -23 121 -7 133 9 7 58
43 107 79 198 146 421 358 520 494 70 97 115 208 115 286 0 46 -6 69 -30 110
-62 108 -203 164 -456 179 -85 5 -324 -6 -398 -19 -5 -1 -19 34 -31 79 -73
270 -168 431 -292 493 -55 27 -156 28 -234 1z m171 -175 c46 -24 114 -98 148
-163 30 -57 92 -223 92 -246 0 -7 -43 -21 -112 -34 -62 -13 -168 -37 -236 -54
l-123 -30 -27 24 c-37 34 -184 145 -259 196 -35 24 -63 46 -63 51 0 4 30 32
67 62 236 191 400 253 513 194z m-1044 -163 c113 -41 254 -107 254 -119 0 -3
-33 -40 -73 -82 -126 -133 -350 -411 -442 -548 -26 -40 -51 -73 -55 -73 -17 0
-115 238 -148 360 -73 266 -44 419 93 494 24 13 52 16 145 13 104 -4 125 -8
226 -45z m567 -316 c59 -44 107 -83 107 -87 0 -4 -10 -11 -22 -15 -187 -57
-679 -276 -732 -325 -6 -5 -16 -9 -23 -9 -27 0 236 326 391 487 l79 83 46 -27
c25 -14 94 -62 154 -107z m1304 -41 c130 -26 224 -92 239 -170 20 -108 -80
-279 -267 -460 -99 -96 -273 -235 -293 -235 -8 0 -15 56 -24 193 -12 190 -54
560 -72 627 -6 21 -6 38 0 44 25 25 288 26 417 1z m-554 -23 c15 -23 84 -617
75 -643 -2 -7 -25 18 -51 56 -25 39 -60 90 -78 115 -43 60 -236 284 -293 340
-25 24 -46 47 -46 51 0 11 310 84 372 88 9 0 19 -2 21 -7z m-415 -224 c205
-207 362 -423 465 -642 35 -74 36 -79 20 -92 -83 -61 -429 -239 -585 -300
-132 -51 -335 -121 -387 -133 l-45 -10 -51 52 c-161 165 -411 494 -520 686
l-34 60 37 29 c119 94 361 231 532 300 141 58 427 160 451 162 3 0 55 -51 117
-112z m-1174 -560 c115 -185 312 -448 429 -574 31 -34 57 -66 57 -72 0 -10
-108 -37 -245 -62 -96 -18 -370 -24 -455 -11 -150 24 -250 106 -250 207 0 91
68 227 186 375 70 87 203 229 214 229 4 0 33 -42 64 -92z m1720 -405 c58 -369
40 -612 -53 -717 -54 -61 -176 -68 -306 -17 -86 33 -237 118 -320 180 -27 20
-68 50 -90 66 -61 45 -195 165 -195 175 0 5 44 23 98 40 238 78 513 198 737
324 55 30 103 56 106 56 4 0 14 -48 23 -107z"/>
<path d="M3063 3680 c-22 -5 -59 -18 -82 -29 -191 -98 -232 -342 -79 -476 58
-51 125 -75 210 -75 236 0 392 224 295 423 -35 70 -106 127 -186 151 -59 17
-93 18 -158 6z"/>
<path d="M888 2233 c-30 -5 -33 -16 -22 -72 l7 -31 102 0 c126 0 213 -24 271
-74 38 -33 39 -35 39 -99 0 -36 -5 -71 -10 -76 -7 -7 -40 2 -105 30 -123 53
-214 72 -308 66 -153 -11 -261 -112 -262 -243 0 -101 94 -190 238 -224 73 -17
195 -9 253 17 l46 20 -13 -36 c-7 -20 -13 -41 -14 -48 0 -10 90 -43 117 -43 4
0 20 30 35 68 15 37 48 117 73 177 104 245 117 314 74 403 -47 97 -197 162
-384 167 -60 2 -122 1 -137 -2z m162 -380 c56 -16 165 -66 173 -80 3 -5 -4
-27 -15 -50 -58 -123 -226 -167 -372 -98 -66 31 -92 72 -83 135 14 106 128
142 297 93z"/>
<path d="M1816 2178 c-65 -147 -55 -138 -126 -113 -24 8 -44 14 -46 12 -1 -1
-12 -24 -23 -50 l-21 -48 23 -8 c12 -5 37 -12 55 -16 17 -3 32 -10 32 -15 0
-5 -18 -53 -41 -107 -131 -315 -132 -318 -133 -373 -1 -70 25 -117 83 -149 73
-40 196 -64 227 -43 6 4 18 28 26 53 l16 46 -64 6 c-93 9 -143 42 -144 95 0
13 29 94 64 180 89 219 105 252 120 252 7 0 59 -13 114 -30 56 -16 105 -30
110 -30 8 0 47 98 41 104 -2 2 -53 18 -113 34 -60 17 -110 33 -113 36 -2 2 8
32 23 67 15 35 33 78 40 96 l14 32 -38 10 c-101 28 -95 30 -126 -41z"/>
<path d="M2345 1823 c-267 -95 -383 -375 -236 -569 78 -103 195 -162 343 -172
186 -12 368 88 444 243 26 54 29 70 29 155 -1 79 -4 102 -24 139 -40 76 -103
134 -193 177 -80 37 -88 39 -198 42 -90 2 -126 -1 -165 -15z m285 -120 c94
-42 150 -126 150 -225 0 -78 -24 -132 -82 -191 -68 -68 -127 -92 -223 -91 -51
1 -94 8 -118 18 -53 23 -126 93 -148 141 -34 74 -20 170 36 243 43 56 75 80
144 109 69 29 170 28 241 -4z"/>
<path d="M3196 1621 c-9 -16 -29 -64 -46 -107 -17 -44 -37 -92 -44 -109 -53
-117 -177 -438 -171 -443 10 -11 125 -40 129 -33 2 3 17 40 34 81 160 402 162
405 266 451 128 56 286 -34 273 -156 -4 -36 -97 -283 -161 -428 -19 -42 -23
-59 -14 -62 123 -44 131 -44 145 -2 6 17 25 66 41 107 140 351 141 354 227
396 47 23 64 26 110 21 78 -8 135 -42 163 -97 27 -54 24 -90 -18 -195 -15 -38
-56 -139 -89 -224 -34 -84 -61 -154 -59 -155 10 -8 131 -37 135 -32 10 9 172
423 189 482 40 139 -36 267 -185 310 -83 25 -214 15 -276 -20 -26 -14 -49 -26
-51 -26 -2 0 -12 19 -22 43 -22 50 -78 102 -141 131 -71 32 -199 29 -269 -5
-57 -28 -59 -26 -37 28 8 19 15 37 15 39 0 4 -105 34 -119 34 -6 0 -17 -13
-25 -29z"/>
<path d="M446 1362 c-8 -13 -86 -224 -86 -233 0 -5 9 -9 19 -9 13 0 23 11 31
36 9 26 16 34 28 29 9 -3 45 -9 78 -12 57 -5 64 -4 88 20 19 19 26 36 26 65 0
49 -20 68 -100 93 -69 21 -77 22 -84 11z m112 -58 c25 -10 32 -19 32 -40 0
-33 -26 -64 -53 -64 -28 0 -97 22 -97 31 0 4 9 28 20 54 22 50 22 50 98 19z"/>
<path d="M713 1282 c-3 -9 -23 -63 -45 -119 -22 -57 -37 -107 -33 -113 13 -22
35 -8 44 28 19 69 27 74 98 54 34 -10 64 -20 68 -23 3 -4 -3 -30 -15 -58 -18
-47 -18 -52 -4 -58 17 -6 44 20 44 42 0 6 16 52 35 101 19 49 35 93 35 97 0 5
-10 7 -22 5 -15 -2 -25 -15 -36 -45 -15 -48 -23 -50 -95 -28 -67 20 -68 21
-51 67 18 51 18 55 -1 62 -10 3 -18 -1 -22 -12z"/>
<path d="M1016 1201 c-15 -24 -84 -226 -80 -233 12 -19 34 -6 46 28 10 28 16
34 33 29 48 -14 123 -17 144 -5 33 17 53 71 40 108 -11 33 -30 44 -108 67 -63
17 -68 18 -75 6z m114 -55 c37 -16 40 -69 6 -91 -22 -15 -32 -15 -76 -5 -55
13 -55 12 -24 88 12 29 16 32 41 26 15 -4 39 -12 53 -18z"/>
<path d="M1395 1098 c-3 -7 -23 -62 -45 -122 -31 -84 -37 -112 -28 -118 21
-13 25 -10 42 37 10 25 21 47 25 50 5 2 34 -3 65 -12 49 -14 59 -14 66 -2 11
17 1 23 -67 39 -29 6 -53 15 -53 20 0 4 7 23 14 42 l15 35 72 -19 c56 -14 74
-15 80 -6 5 7 6 14 4 16 -3 3 -175 52 -183 52 -1 0 -5 -6 -7 -12z"/>
<path d="M1631 1018 c-65 -178 -76 -219 -61 -228 19 -12 27 -5 35 30 8 39 14
41 58 28 31 -10 39 -18 47 -49 9 -34 47 -76 58 -64 2 2 -3 25 -11 50 -16 45
-16 46 7 55 32 12 66 58 66 89 0 45 -26 69 -96 91 -83 25 -93 25 -103 -2z
m144 -58 c15 -16 17 -25 9 -47 -13 -37 -48 -48 -103 -33 -40 10 -43 14 -38 38
3 15 10 39 16 54 9 25 12 26 53 17 24 -6 52 -19 63 -29z"/>
<path d="M1903 841 c-56 -60 -99 -111 -96 -115 13 -13 38 -5 59 19 l22 26 68
-19 c65 -18 69 -21 74 -52 4 -29 32 -62 43 -50 2 3 -2 66 -10 140 -11 100 -19
138 -31 148 -9 6 -19 12 -22 12 -3 0 -52 -49 -107 -109z m111 27 c3 -13 6 -40
6 -62 0 -36 -2 -38 -25 -32 -13 3 -36 11 -51 16 -26 10 -26 11 -8 33 44 52 58
67 65 67 3 0 9 -10 13 -22z"/>
<path d="M2199 863 c-30 -79 -79 -216 -79 -224 0 -5 9 -9 19 -9 20 0 49 62 66
138 3 18 10 30 14 27 4 -2 16 -39 26 -80 10 -42 24 -79 31 -82 8 -3 42 20 76
51 35 31 66 56 70 56 4 0 -5 -30 -19 -67 -31 -82 -33 -106 -12 -111 13 -2 26
23 58 115 23 65 43 123 43 128 4 30 -40 8 -114 -54 -55 -47 -85 -66 -89 -58
-4 6 -12 37 -19 67 -25 113 -31 130 -46 130 -8 0 -19 -12 -25 -27z"/>
<path d="M2572 773 c-15 -29 -84 -234 -80 -237 14 -13 193 -55 196 -47 7 22 1
27 -70 46 -77 22 -79 25 -58 81 l9 23 65 -19 c43 -12 68 -15 72 -8 9 15 -5 24
-69 42 -48 14 -57 20 -52 34 4 9 10 25 12 35 6 21 13 21 83 2 69 -19 80 -19
80 0 0 8 -17 19 -42 25 -24 6 -63 18 -87 25 -54 18 -49 18 -59 -2z"/>
<path d="M2810 581 c0 -131 1 -139 20 -144 21 -5 22 -5 126 131 14 18 29 30
35 27 5 -4 9 -50 9 -105 0 -80 3 -99 16 -104 23 -9 26 -5 110 107 88 117 91
122 70 130 -16 6 -28 -7 -106 -113 -45 -60 -45 -61 -51 -33 -4 15 -7 65 -8
111 -1 78 -2 82 -23 82 -17 -1 -41 -25 -88 -88 l-65 -86 -3 112 c-2 104 -4
112 -22 112 -19 0 -20 -7 -20 -139z"/>
<path d="M3275 560 c-50 -25 -78 -70 -78 -126 0 -55 24 -91 76 -115 83 -37
165 -16 207 53 41 68 12 154 -64 189 -53 24 -91 24 -141 -1z m147 -49 c79 -70
0 -199 -105 -170 -68 19 -96 88 -60 149 34 58 113 68 165 21z"/>
<path d="M3589 483 c-56 -148 -79 -227 -67 -235 20 -12 31 -4 43 33 11 29 16
34 41 31 46 -5 60 -19 74 -67 7 -25 16 -45 20 -45 5 0 15 -3 24 -6 14 -5 14
-1 1 42 -18 61 -18 64 -1 64 24 0 64 43 71 76 5 24 1 38 -19 61 -22 26 -52 39
-158 69 -13 4 -21 -3 -29 -23z m119 -43 c35 -16 42 -24 42 -48 0 -58 -50 -75
-132 -43 l-27 10 17 50 c18 58 31 62 100 31z"/>
<path d="M3885 418 c-51 -133 -83 -243 -72 -250 21 -13 28 -9 43 27 8 19 27
41 42 49 l29 15 33 -70 c29 -60 61 -92 76 -76 2 2 -12 39 -32 83 -41 90 -44
83 55 137 29 15 49 32 46 37 -10 16 -37 12 -75 -12 -55 -34 -132 -70 -138 -64
-3 3 5 31 17 62 11 31 19 60 15 65 -8 13 -34 11 -39 -3z"/>
</g>
</svg>
